#!OML:ASF E:/inclinewalkrobotboard/Project1/Captureday1/Session1/subject1.ASF
:FULLY-SPECIFIED
:DEGREES
276
root 0 0 0 -1.667398263423974 -5.172765225096312 -7.093838717938086
lowerback 10.083439308888735 2.399088119053986 5.329686204622932
upperback 0.022593235309555315 3.894390184615345 1.3949233377796182
thorax -5.554436963676631 1.7928956042045838 -2.091210265022582
lowerneck -14.490923647279253 -3.307224563031453 -0.8995134027125321
upperneck 17.02472801539563 -4.565577640688636 1.419594360582598
head 7.876819581486029 -2.1211927977758402 0.12461160421270939
rclavicle -1.7383593078148498E-16 -7.190293929791264E-17
rhumerus -19.576855877647453 -7.191289810197574 -67.3228708615234
rradius 60.843498943558615
rwrist -8.211775260059754
rhand -13.318335043149773 -9.191289622284103
rfingers 7.1250199999998625
rthumb 12.814268056181628 -38.424705875951716
lclavicle -8.573933170896466E-16 -4.121844946459027E-16
lhumerus -40.354558311173925 0.30703822482382553 83.3556688031693
lradius 39.22534396339543
lwrist 2.380010281560893
lhand -18.676570650940235 -1.4589410104243488
lfingers 7.1250199999998625
lthumb 7.506050708720908 28.017895532324175
rfemur -5.84784315230201 2.824863742642666 15.41211850379042
rtibia 23.600482674952744
rfoot -3.819801364944496 -3.042469927463574
rtoes 2.3662070422117094
lfemur -8.543780159960031 -3.0813008666778092 -15.399416490668626
ltibia 28.020711968429588
lfoot -14.474756496688851 3.8522080163333534
ltoes -24.921694247868302
277
root 0 0 0 -1.6689144238689542 -5.117201584165208 -7.00432010304627
lowerback 10.084199694616132 2.365442188607192 5.234742605416147
upperback 0.023159057097268954 3.8375085362592847 1.3917763325714438
thorax -5.554618805492669 1.7673764939202106 -2.0342694742640557
lowerneck -14.48740024718301 -3.2997583102674493 -0.9061256380381012
upperneck 17.01315107671327 -4.553351674357678 1.4194976706748677
head 7.875279786572411 -2.1157920313774903 0.1272183706024469
rclavicle -1.7573936721496038E-16 -7.450085271403716E-17
rhumerus -19.619177398474054 -7.236123056410668 -67.3662465741014
rradius 60.70742413965946
rwrist -8.161834275823495
rhand -13.335840351545242 -9.065900474973128
rfingers 7.125019999999863
rthumb 12.797176678379554 -38.30149142438124
lclavicle -8.583695440292862E-16 -4.1308570266545673E-16
lhumerus -40.31000653324556 0.3083550771788451 83.35121362291056
lradius 39.15643660344389
lwrist 2.3977326792022513
lhand -18.72470507890149 -1.3097681184762795
lfingers 7.125019999999864
lthumb 7.459810967054439 28.170635540094295
rfemur -6.03642772027045 2.6991090834521225 15.136503319093856
rtibia 23.95667412764312
rfoot -3.432438578456334 -2.986764151563637
rtoes 2.5142847224545894
lfemur -7.241868222862157 -3.273828829042857 -15.999196612727157
ltibia 26.597927100670518
lfoot -15.198588239879632 4.102934656277655
ltoes -25.082503380981805
278
root 0 0 0 -1.671468661040408 -5.035472052451709 -6.872103534644468
lowerback 10.085016294656212 2.3160171091432074 5.093947291781965
upperback 0.024055499571759398 3.7541227621776594 1.3865053609896234
thorax -5.554463536265726 1.7298566216092222 -1.9502222725408636
lowerneck -14.48000708625099 -3.2884299746035794 -0.915329784831607
upperneck 16.996258245098275 -4.534999601559052 1.4192115916455081
head 7.871821658111249 -2.107749367121432 0.1310719926466149
rclavicle -1.7827958274480152E-16 -7.717272803482273E-17
rhumerus -19.669468575905316 -7.290425902207237 -67.41828646761464
rradius 60.54347217563171
rwrist -8.1017420630251
rhand -13.357017343075327 -8.914068762155157
rfingers 7.125019999999864
rthumb 12.776454393861428 -38.152387164546
lclavicle -8.593596123805013E-16 -4.133167610418765E-16
lhumerus -40.247547069460744 0.3094303499645687 83.3449387944149
lradius 39.061363746262984
lwrist 2.4230486474654382
lhand -18.79214140239047 -1.1015256669129787
lfingers 7.125019999999865
lthumb 7.395211623235718 28.383695294299798
rfemur -6.457802688219258 2.5226802908195713 14.84527947348841
rtibia 24.78165838476756
rfoot -2.8529591522770135 -2.9451579860987342
rtoes 2.7889975351085052
lfemur -5.732985379007224 -3.48935980664789 -16.723978698014125
ltibia 24.978827541960026
lfoot -15.989062446063281 4.34776721653474
ltoes -25.130014719288898
279
root 0 0 0 -1.67350334215631 -4.908265576799068 -6.6688841800559295
lowerback 10.08473601313609 2.240180532981051 4.874632239413985
upperback 0.024729288926217396 3.6260355254414036 1.3767716039735363
thorax -5.554315365699042 1.6721203141065475 -1.8207502625184222
lowerneck -14.45961259997258 -3.2699816761105236 -0.9266730934620255
upperneck 16.961938217423153 -4.505984792256529 1.4202900817197572
head 7.861843488451855 -2.0949518099229794 0.1373966937861715
rclavicle -1.8039113990144753E-16 -7.963525550412233E-17
rhumerus -19.71365667120612 -7.339347967840696 -67.46432040535991
rradius 60.39726945601204
rwrist -8.048197804226467
rhand -13.375949836571415 -8.77783693062705
rfingers 7.125019999999864
rthumb 12.757841601637276 -38.01869262366782
lclavicle -8.582601638222419E-16 -4.120118346858264E-16
lhumerus -40.16208338689577 0.30794382956376853 83.33635047119594
lradius 38.93817151108303
lwrist 2.4587076128386594
lhand -18.882966729289354 -0.8223317836381483
lfingers 7.125019999999868
lthumb 7.308517561178954 28.66844278915668
rfemur -7.037730167418033 2.3618206473420487 14.626578874332228
rtibia 25.71686093649991
rfoot -2.328586712091491 -2.963766447826779
rtoes 3.04493812335848
lfemur -4.006824002395167 -3.7306406606719795 -17.567846028913586
ltibia 23.15075571718248
lfoot -16.861813928661505 4.599631530313813
ltoes -25.109064393096745
